<mxfile host="app.diagrams.net" modified="2024-04-10T12:33:06.674Z" agent="Mozilla/5.0 (Windows NT 10.0; Win64; x64) AppleWebKit/537.36 (KHTML, like Gecko) Chrome/122.0.0.0 Safari/537.36 Edg/122.0.0.0" etag="FC2MkYHd2Imd5ogX40-K" version="24.2.3" type="github">
  <diagram name="Página-1" id="bMPJOeZ_GDvLo880_cnZ">
    <mxGraphModel dx="1728" dy="2138" grid="1" gridSize="10" guides="1" tooltips="1" connect="1" arrows="1" fold="1" page="1" pageScale="1" pageWidth="827" pageHeight="1169" math="0" shadow="0">
      <root>
        <mxCell id="0" />
        <mxCell id="1" parent="0" />
        <mxCell id="1vZgLCWaHHHwiQrd-jDc-71" style="edgeStyle=orthogonalEdgeStyle;rounded=0;orthogonalLoop=1;jettySize=auto;html=1;" edge="1" parent="1" source="1vZgLCWaHHHwiQrd-jDc-1" target="1vZgLCWaHHHwiQrd-jDc-45">
          <mxGeometry relative="1" as="geometry" />
        </mxCell>
        <mxCell id="1vZgLCWaHHHwiQrd-jDc-1" value="cliente" style="shape=umlActor;verticalLabelPosition=bottom;verticalAlign=top;html=1;outlineConnect=0;" vertex="1" parent="1">
          <mxGeometry x="40" y="-120" width="30" height="60" as="geometry" />
        </mxCell>
        <mxCell id="1vZgLCWaHHHwiQrd-jDc-77" style="edgeStyle=orthogonalEdgeStyle;rounded=0;orthogonalLoop=1;jettySize=auto;html=1;entryX=0;entryY=1;entryDx=0;entryDy=0;" edge="1" parent="1" source="1vZgLCWaHHHwiQrd-jDc-2" target="1vZgLCWaHHHwiQrd-jDc-73">
          <mxGeometry relative="1" as="geometry">
            <Array as="points">
              <mxPoint x="60" y="415" />
              <mxPoint x="60" y="333" />
            </Array>
          </mxGeometry>
        </mxCell>
        <mxCell id="1vZgLCWaHHHwiQrd-jDc-2" value="vendedor de guichê" style="shape=umlActor;verticalLabelPosition=bottom;verticalAlign=top;html=1;outlineConnect=0;" vertex="1" parent="1">
          <mxGeometry y="385" width="30" height="60" as="geometry" />
        </mxCell>
        <mxCell id="1vZgLCWaHHHwiQrd-jDc-3" value="coletor de bilhetes na entrada do espetáculo" style="shape=umlActor;verticalLabelPosition=bottom;verticalAlign=top;html=1;outlineConnect=0;" vertex="1" parent="1">
          <mxGeometry x="1550" y="434.5" width="30" height="60" as="geometry" />
        </mxCell>
        <mxCell id="1vZgLCWaHHHwiQrd-jDc-4" value="gerente financeiro" style="shape=umlActor;verticalLabelPosition=bottom;verticalAlign=top;html=1;outlineConnect=0;" vertex="1" parent="1">
          <mxGeometry x="1550" y="-30" width="30" height="60" as="geometry" />
        </mxCell>
        <mxCell id="1vZgLCWaHHHwiQrd-jDc-5" value="gerente programação artística" style="shape=umlActor;verticalLabelPosition=bottom;verticalAlign=top;html=1;outlineConnect=0;" vertex="1" parent="1">
          <mxGeometry x="1550" y="70" width="30" height="60" as="geometry" />
        </mxCell>
        <mxCell id="1vZgLCWaHHHwiQrd-jDc-76" style="edgeStyle=orthogonalEdgeStyle;rounded=0;orthogonalLoop=1;jettySize=auto;html=1;entryX=0;entryY=0.5;entryDx=0;entryDy=0;" edge="1" parent="1" source="1vZgLCWaHHHwiQrd-jDc-6" target="1vZgLCWaHHHwiQrd-jDc-73">
          <mxGeometry relative="1" as="geometry" />
        </mxCell>
        <mxCell id="1vZgLCWaHHHwiQrd-jDc-6" value="ponto de venda terceirizado" style="shape=umlActor;verticalLabelPosition=bottom;verticalAlign=top;html=1;outlineConnect=0;" vertex="1" parent="1">
          <mxGeometry y="285" width="30" height="60" as="geometry" />
        </mxCell>
        <mxCell id="1vZgLCWaHHHwiQrd-jDc-10" value="Sistema Arena Entretenimento" style="shape=umlFrame;whiteSpace=wrap;html=1;pointerEvents=0;width=180;height=20;" vertex="1" parent="1">
          <mxGeometry x="80" y="-250" width="1380" height="900" as="geometry" />
        </mxCell>
        <mxCell id="1vZgLCWaHHHwiQrd-jDc-20" style="edgeStyle=orthogonalEdgeStyle;rounded=0;orthogonalLoop=1;jettySize=auto;html=1;entryX=0;entryY=0.5;entryDx=0;entryDy=0;" edge="1" parent="1" source="1vZgLCWaHHHwiQrd-jDc-11" target="1vZgLCWaHHHwiQrd-jDc-19">
          <mxGeometry relative="1" as="geometry" />
        </mxCell>
        <mxCell id="1vZgLCWaHHHwiQrd-jDc-11" value="comprar bilhete" style="ellipse;whiteSpace=wrap;html=1;" vertex="1" parent="1">
          <mxGeometry x="220" y="-120" width="80" height="50" as="geometry" />
        </mxCell>
        <mxCell id="1vZgLCWaHHHwiQrd-jDc-40" style="edgeStyle=orthogonalEdgeStyle;rounded=0;orthogonalLoop=1;jettySize=auto;html=1;entryX=0.5;entryY=0;entryDx=0;entryDy=0;" edge="1" parent="1" source="1vZgLCWaHHHwiQrd-jDc-13" target="1vZgLCWaHHHwiQrd-jDc-39">
          <mxGeometry relative="1" as="geometry" />
        </mxCell>
        <mxCell id="1vZgLCWaHHHwiQrd-jDc-13" value="Inserir dados do documento" style="ellipse;whiteSpace=wrap;html=1;" vertex="1" parent="1">
          <mxGeometry x="110" y="-70" width="80" height="50" as="geometry" />
        </mxCell>
        <mxCell id="1vZgLCWaHHHwiQrd-jDc-17" value="guardar no banco de dados" style="ellipse;whiteSpace=wrap;html=1;" vertex="1" parent="1">
          <mxGeometry x="414" y="-190" width="90" height="60" as="geometry" />
        </mxCell>
        <mxCell id="1vZgLCWaHHHwiQrd-jDc-21" style="edgeStyle=orthogonalEdgeStyle;rounded=0;orthogonalLoop=1;jettySize=auto;html=1;entryX=0;entryY=1;entryDx=0;entryDy=0;" edge="1" parent="1" source="1vZgLCWaHHHwiQrd-jDc-19" target="1vZgLCWaHHHwiQrd-jDc-17">
          <mxGeometry relative="1" as="geometry">
            <Array as="points">
              <mxPoint x="370" y="-130" />
              <mxPoint x="427" y="-130" />
            </Array>
          </mxGeometry>
        </mxCell>
        <mxCell id="1vZgLCWaHHHwiQrd-jDc-26" style="edgeStyle=orthogonalEdgeStyle;rounded=0;orthogonalLoop=1;jettySize=auto;html=1;" edge="1" parent="1" source="1vZgLCWaHHHwiQrd-jDc-19" target="1vZgLCWaHHHwiQrd-jDc-22">
          <mxGeometry relative="1" as="geometry" />
        </mxCell>
        <mxCell id="1vZgLCWaHHHwiQrd-jDc-19" value="protocolo da compra" style="ellipse;whiteSpace=wrap;html=1;" vertex="1" parent="1">
          <mxGeometry x="330" y="-120" width="80" height="50" as="geometry" />
        </mxCell>
        <mxCell id="1vZgLCWaHHHwiQrd-jDc-27" style="edgeStyle=orthogonalEdgeStyle;rounded=0;orthogonalLoop=1;jettySize=auto;html=1;entryX=0.5;entryY=0;entryDx=0;entryDy=0;" edge="1" parent="1" source="1vZgLCWaHHHwiQrd-jDc-22">
          <mxGeometry relative="1" as="geometry">
            <mxPoint x="370" y="92.46" as="targetPoint" />
          </mxGeometry>
        </mxCell>
        <mxCell id="1vZgLCWaHHHwiQrd-jDc-44" style="edgeStyle=orthogonalEdgeStyle;rounded=0;orthogonalLoop=1;jettySize=auto;html=1;entryX=0.5;entryY=1;entryDx=0;entryDy=0;" edge="1" parent="1" source="1vZgLCWaHHHwiQrd-jDc-22" target="1vZgLCWaHHHwiQrd-jDc-17">
          <mxGeometry relative="1" as="geometry" />
        </mxCell>
        <mxCell id="1vZgLCWaHHHwiQrd-jDc-22" value="número do bilhete" style="ellipse;whiteSpace=wrap;html=1;" vertex="1" parent="1">
          <mxGeometry x="330" y="22.46" width="80" height="50" as="geometry" />
        </mxCell>
        <mxCell id="1vZgLCWaHHHwiQrd-jDc-25" style="edgeStyle=orthogonalEdgeStyle;rounded=0;orthogonalLoop=1;jettySize=auto;html=1;" edge="1" parent="1" source="1vZgLCWaHHHwiQrd-jDc-24" target="1vZgLCWaHHHwiQrd-jDc-1">
          <mxGeometry relative="1" as="geometry" />
        </mxCell>
        <mxCell id="1vZgLCWaHHHwiQrd-jDc-24" value="bilhete eletrônico" style="ellipse;whiteSpace=wrap;html=1;" vertex="1" parent="1">
          <mxGeometry x="330" y="90" width="80" height="50" as="geometry" />
        </mxCell>
        <mxCell id="1vZgLCWaHHHwiQrd-jDc-31" style="edgeStyle=orthogonalEdgeStyle;rounded=0;orthogonalLoop=1;jettySize=auto;html=1;entryX=0.5;entryY=1;entryDx=0;entryDy=0;" edge="1" parent="1" source="1vZgLCWaHHHwiQrd-jDc-28" target="1vZgLCWaHHHwiQrd-jDc-11">
          <mxGeometry relative="1" as="geometry">
            <Array as="points">
              <mxPoint x="260" y="50" />
            </Array>
          </mxGeometry>
        </mxCell>
        <mxCell id="1vZgLCWaHHHwiQrd-jDc-28" value="forma de pagamento: vale ou crédito" style="ellipse;whiteSpace=wrap;html=1;" vertex="1" parent="1">
          <mxGeometry x="210" y="65" width="100" height="75" as="geometry" />
        </mxCell>
        <mxCell id="1vZgLCWaHHHwiQrd-jDc-32" value="venda de bilhete remoto" style="shape=umlFrame;whiteSpace=wrap;html=1;pointerEvents=0;width=140;height=15;" vertex="1" parent="1">
          <mxGeometry x="90" y="-200" width="450" height="370" as="geometry" />
        </mxCell>
        <mxCell id="1vZgLCWaHHHwiQrd-jDc-35" style="edgeStyle=orthogonalEdgeStyle;rounded=0;orthogonalLoop=1;jettySize=auto;html=1;entryX=0;entryY=0.5;entryDx=0;entryDy=0;" edge="1" parent="1" source="1vZgLCWaHHHwiQrd-jDc-33" target="1vZgLCWaHHHwiQrd-jDc-28">
          <mxGeometry relative="1" as="geometry" />
        </mxCell>
        <mxCell id="1vZgLCWaHHHwiQrd-jDc-33" value="Selecionar tipo de bilhete." style="ellipse;whiteSpace=wrap;html=1;" vertex="1" parent="1">
          <mxGeometry x="105" y="77.5" width="90" height="50" as="geometry" />
        </mxCell>
        <mxCell id="1vZgLCWaHHHwiQrd-jDc-36" style="edgeStyle=orthogonalEdgeStyle;rounded=0;orthogonalLoop=1;jettySize=auto;html=1;entryX=0.721;entryY=1.001;entryDx=0;entryDy=0;entryPerimeter=0;" edge="1" parent="1" source="1vZgLCWaHHHwiQrd-jDc-28" target="1vZgLCWaHHHwiQrd-jDc-17">
          <mxGeometry relative="1" as="geometry">
            <Array as="points">
              <mxPoint x="260" y="150" />
              <mxPoint x="479" y="150" />
            </Array>
          </mxGeometry>
        </mxCell>
        <mxCell id="1vZgLCWaHHHwiQrd-jDc-37" style="edgeStyle=orthogonalEdgeStyle;rounded=0;orthogonalLoop=1;jettySize=auto;html=1;entryX=0.962;entryY=0.653;entryDx=0;entryDy=0;entryPerimeter=0;" edge="1" parent="1" source="1vZgLCWaHHHwiQrd-jDc-33" target="1vZgLCWaHHHwiQrd-jDc-17">
          <mxGeometry relative="1" as="geometry">
            <Array as="points">
              <mxPoint x="150" y="160" />
              <mxPoint x="501" y="160" />
            </Array>
          </mxGeometry>
        </mxCell>
        <mxCell id="1vZgLCWaHHHwiQrd-jDc-41" style="edgeStyle=orthogonalEdgeStyle;rounded=0;orthogonalLoop=1;jettySize=auto;html=1;" edge="1" parent="1" source="1vZgLCWaHHHwiQrd-jDc-39" target="1vZgLCWaHHHwiQrd-jDc-33">
          <mxGeometry relative="1" as="geometry" />
        </mxCell>
        <mxCell id="1vZgLCWaHHHwiQrd-jDc-39" value="escolher assento" style="ellipse;whiteSpace=wrap;html=1;" vertex="1" parent="1">
          <mxGeometry x="110" width="80" height="50" as="geometry" />
        </mxCell>
        <mxCell id="1vZgLCWaHHHwiQrd-jDc-43" style="edgeStyle=orthogonalEdgeStyle;rounded=0;orthogonalLoop=1;jettySize=auto;html=1;entryX=0.279;entryY=1.015;entryDx=0;entryDy=0;entryPerimeter=0;" edge="1" parent="1" source="1vZgLCWaHHHwiQrd-jDc-13" target="1vZgLCWaHHHwiQrd-jDc-17">
          <mxGeometry relative="1" as="geometry" />
        </mxCell>
        <mxCell id="1vZgLCWaHHHwiQrd-jDc-70" style="edgeStyle=orthogonalEdgeStyle;rounded=0;orthogonalLoop=1;jettySize=auto;html=1;entryX=0.5;entryY=0;entryDx=0;entryDy=0;" edge="1" parent="1" source="1vZgLCWaHHHwiQrd-jDc-45" target="1vZgLCWaHHHwiQrd-jDc-13">
          <mxGeometry relative="1" as="geometry" />
        </mxCell>
        <mxCell id="1vZgLCWaHHHwiQrd-jDc-45" value="Acessar site" style="ellipse;whiteSpace=wrap;html=1;" vertex="1" parent="1">
          <mxGeometry x="110" y="-140" width="80" height="50" as="geometry" />
        </mxCell>
        <mxCell id="1vZgLCWaHHHwiQrd-jDc-46" value="cliente" style="shape=umlActor;verticalLabelPosition=bottom;verticalAlign=top;html=1;outlineConnect=0;" vertex="1" parent="1">
          <mxGeometry x="440" y="690" width="30" height="60" as="geometry" />
        </mxCell>
        <mxCell id="1vZgLCWaHHHwiQrd-jDc-47" style="edgeStyle=orthogonalEdgeStyle;rounded=0;orthogonalLoop=1;jettySize=auto;html=1;entryX=0;entryY=0.5;entryDx=0;entryDy=0;" edge="1" parent="1" source="1vZgLCWaHHHwiQrd-jDc-48" target="1vZgLCWaHHHwiQrd-jDc-54">
          <mxGeometry relative="1" as="geometry" />
        </mxCell>
        <mxCell id="1vZgLCWaHHHwiQrd-jDc-48" value="comprar bilhete" style="ellipse;whiteSpace=wrap;html=1;" vertex="1" parent="1">
          <mxGeometry x="220" y="310" width="80" height="50" as="geometry" />
        </mxCell>
        <mxCell id="1vZgLCWaHHHwiQrd-jDc-49" style="edgeStyle=orthogonalEdgeStyle;rounded=0;orthogonalLoop=1;jettySize=auto;html=1;entryX=0.5;entryY=0;entryDx=0;entryDy=0;" edge="1" parent="1" source="1vZgLCWaHHHwiQrd-jDc-50" target="1vZgLCWaHHHwiQrd-jDc-68">
          <mxGeometry relative="1" as="geometry" />
        </mxCell>
        <mxCell id="1vZgLCWaHHHwiQrd-jDc-50" value="Inserir dados do documento" style="ellipse;whiteSpace=wrap;html=1;" vertex="1" parent="1">
          <mxGeometry x="110" y="360" width="80" height="50" as="geometry" />
        </mxCell>
        <mxCell id="1vZgLCWaHHHwiQrd-jDc-51" value="guardar no banco de dados" style="ellipse;whiteSpace=wrap;html=1;" vertex="1" parent="1">
          <mxGeometry x="414" y="240" width="90" height="60" as="geometry" />
        </mxCell>
        <mxCell id="1vZgLCWaHHHwiQrd-jDc-52" style="edgeStyle=orthogonalEdgeStyle;rounded=0;orthogonalLoop=1;jettySize=auto;html=1;entryX=0;entryY=1;entryDx=0;entryDy=0;" edge="1" parent="1" source="1vZgLCWaHHHwiQrd-jDc-54" target="1vZgLCWaHHHwiQrd-jDc-51">
          <mxGeometry relative="1" as="geometry">
            <Array as="points">
              <mxPoint x="370" y="300" />
              <mxPoint x="427" y="300" />
            </Array>
          </mxGeometry>
        </mxCell>
        <mxCell id="1vZgLCWaHHHwiQrd-jDc-53" style="edgeStyle=orthogonalEdgeStyle;rounded=0;orthogonalLoop=1;jettySize=auto;html=1;" edge="1" parent="1" source="1vZgLCWaHHHwiQrd-jDc-54" target="1vZgLCWaHHHwiQrd-jDc-57">
          <mxGeometry relative="1" as="geometry" />
        </mxCell>
        <mxCell id="1vZgLCWaHHHwiQrd-jDc-54" value="protocolo da compra" style="ellipse;whiteSpace=wrap;html=1;" vertex="1" parent="1">
          <mxGeometry x="330" y="310" width="80" height="50" as="geometry" />
        </mxCell>
        <mxCell id="1vZgLCWaHHHwiQrd-jDc-55" style="edgeStyle=orthogonalEdgeStyle;rounded=0;orthogonalLoop=1;jettySize=auto;html=1;entryX=0.5;entryY=0;entryDx=0;entryDy=0;" edge="1" parent="1" source="1vZgLCWaHHHwiQrd-jDc-57">
          <mxGeometry relative="1" as="geometry">
            <mxPoint x="370" y="522.46" as="targetPoint" />
          </mxGeometry>
        </mxCell>
        <mxCell id="1vZgLCWaHHHwiQrd-jDc-56" style="edgeStyle=orthogonalEdgeStyle;rounded=0;orthogonalLoop=1;jettySize=auto;html=1;entryX=0.5;entryY=1;entryDx=0;entryDy=0;" edge="1" parent="1" source="1vZgLCWaHHHwiQrd-jDc-57" target="1vZgLCWaHHHwiQrd-jDc-51">
          <mxGeometry relative="1" as="geometry" />
        </mxCell>
        <mxCell id="1vZgLCWaHHHwiQrd-jDc-57" value="número do bilhete" style="ellipse;whiteSpace=wrap;html=1;" vertex="1" parent="1">
          <mxGeometry x="330" y="452.46" width="80" height="50" as="geometry" />
        </mxCell>
        <mxCell id="1vZgLCWaHHHwiQrd-jDc-58" style="edgeStyle=orthogonalEdgeStyle;rounded=0;orthogonalLoop=1;jettySize=auto;html=1;" edge="1" parent="1" source="1vZgLCWaHHHwiQrd-jDc-59" target="1vZgLCWaHHHwiQrd-jDc-46">
          <mxGeometry relative="1" as="geometry" />
        </mxCell>
        <mxCell id="1vZgLCWaHHHwiQrd-jDc-59" value="bilhete eletrônico" style="ellipse;whiteSpace=wrap;html=1;" vertex="1" parent="1">
          <mxGeometry x="330" y="520" width="80" height="50" as="geometry" />
        </mxCell>
        <mxCell id="1vZgLCWaHHHwiQrd-jDc-60" style="edgeStyle=orthogonalEdgeStyle;rounded=0;orthogonalLoop=1;jettySize=auto;html=1;entryX=0.5;entryY=1;entryDx=0;entryDy=0;" edge="1" parent="1" source="1vZgLCWaHHHwiQrd-jDc-61" target="1vZgLCWaHHHwiQrd-jDc-48">
          <mxGeometry relative="1" as="geometry">
            <Array as="points">
              <mxPoint x="260" y="480" />
            </Array>
          </mxGeometry>
        </mxCell>
        <mxCell id="1vZgLCWaHHHwiQrd-jDc-61" value="Escolher forma pagamento" style="ellipse;whiteSpace=wrap;html=1;" vertex="1" parent="1">
          <mxGeometry x="210" y="495" width="100" height="75" as="geometry" />
        </mxCell>
        <mxCell id="1vZgLCWaHHHwiQrd-jDc-62" value="venda de bilhete local" style="shape=umlFrame;whiteSpace=wrap;html=1;pointerEvents=0;width=150;height=15;" vertex="1" parent="1">
          <mxGeometry x="90" y="230" width="450" height="370" as="geometry" />
        </mxCell>
        <mxCell id="1vZgLCWaHHHwiQrd-jDc-63" style="edgeStyle=orthogonalEdgeStyle;rounded=0;orthogonalLoop=1;jettySize=auto;html=1;entryX=0;entryY=0.5;entryDx=0;entryDy=0;" edge="1" parent="1" source="1vZgLCWaHHHwiQrd-jDc-64" target="1vZgLCWaHHHwiQrd-jDc-61">
          <mxGeometry relative="1" as="geometry" />
        </mxCell>
        <mxCell id="1vZgLCWaHHHwiQrd-jDc-64" value="Selecionar tipo de bilhete." style="ellipse;whiteSpace=wrap;html=1;" vertex="1" parent="1">
          <mxGeometry x="105" y="507.5" width="90" height="50" as="geometry" />
        </mxCell>
        <mxCell id="1vZgLCWaHHHwiQrd-jDc-65" style="edgeStyle=orthogonalEdgeStyle;rounded=0;orthogonalLoop=1;jettySize=auto;html=1;entryX=0.721;entryY=1.001;entryDx=0;entryDy=0;entryPerimeter=0;" edge="1" parent="1" source="1vZgLCWaHHHwiQrd-jDc-61" target="1vZgLCWaHHHwiQrd-jDc-51">
          <mxGeometry relative="1" as="geometry">
            <Array as="points">
              <mxPoint x="260" y="580" />
              <mxPoint x="479" y="580" />
            </Array>
          </mxGeometry>
        </mxCell>
        <mxCell id="1vZgLCWaHHHwiQrd-jDc-66" style="edgeStyle=orthogonalEdgeStyle;rounded=0;orthogonalLoop=1;jettySize=auto;html=1;entryX=0.962;entryY=0.653;entryDx=0;entryDy=0;entryPerimeter=0;" edge="1" parent="1" source="1vZgLCWaHHHwiQrd-jDc-64" target="1vZgLCWaHHHwiQrd-jDc-51">
          <mxGeometry relative="1" as="geometry">
            <Array as="points">
              <mxPoint x="150" y="590" />
              <mxPoint x="501" y="590" />
            </Array>
          </mxGeometry>
        </mxCell>
        <mxCell id="1vZgLCWaHHHwiQrd-jDc-67" style="edgeStyle=orthogonalEdgeStyle;rounded=0;orthogonalLoop=1;jettySize=auto;html=1;" edge="1" parent="1" source="1vZgLCWaHHHwiQrd-jDc-68" target="1vZgLCWaHHHwiQrd-jDc-64">
          <mxGeometry relative="1" as="geometry" />
        </mxCell>
        <mxCell id="1vZgLCWaHHHwiQrd-jDc-68" value="escolher assento" style="ellipse;whiteSpace=wrap;html=1;" vertex="1" parent="1">
          <mxGeometry x="110" y="430" width="80" height="50" as="geometry" />
        </mxCell>
        <mxCell id="1vZgLCWaHHHwiQrd-jDc-69" style="edgeStyle=orthogonalEdgeStyle;rounded=0;orthogonalLoop=1;jettySize=auto;html=1;entryX=0.279;entryY=1.015;entryDx=0;entryDy=0;entryPerimeter=0;" edge="1" parent="1" source="1vZgLCWaHHHwiQrd-jDc-50" target="1vZgLCWaHHHwiQrd-jDc-51">
          <mxGeometry relative="1" as="geometry" />
        </mxCell>
        <mxCell id="1vZgLCWaHHHwiQrd-jDc-74" style="edgeStyle=orthogonalEdgeStyle;rounded=0;orthogonalLoop=1;jettySize=auto;html=1;" edge="1" parent="1" source="1vZgLCWaHHHwiQrd-jDc-73" target="1vZgLCWaHHHwiQrd-jDc-50">
          <mxGeometry relative="1" as="geometry" />
        </mxCell>
        <mxCell id="1vZgLCWaHHHwiQrd-jDc-73" value="pegar dados do cliente" style="ellipse;whiteSpace=wrap;html=1;" vertex="1" parent="1">
          <mxGeometry x="110" y="290" width="80" height="50" as="geometry" />
        </mxCell>
        <mxCell id="1vZgLCWaHHHwiQrd-jDc-80" value="Guardar no banco de dados" style="ellipse;whiteSpace=wrap;html=1;" vertex="1" parent="1">
          <mxGeometry x="1000" y="-200" width="80" height="55" as="geometry" />
        </mxCell>
        <mxCell id="1vZgLCWaHHHwiQrd-jDc-81" style="edgeStyle=orthogonalEdgeStyle;rounded=0;orthogonalLoop=1;jettySize=auto;html=1;entryX=0.5;entryY=0;entryDx=0;entryDy=0;" edge="1" parent="1" source="1vZgLCWaHHHwiQrd-jDc-82" target="1vZgLCWaHHHwiQrd-jDc-100">
          <mxGeometry relative="1" as="geometry">
            <Array as="points">
              <mxPoint x="665" y="188" />
              <mxPoint x="810" y="188" />
            </Array>
          </mxGeometry>
        </mxCell>
        <mxCell id="1vZgLCWaHHHwiQrd-jDc-82" value="receber vale -entrada do valor correspondente (Val: 6 meses)." style="ellipse;whiteSpace=wrap;html=1;" vertex="1" parent="1">
          <mxGeometry x="580" y="70" width="140" height="90" as="geometry" />
        </mxCell>
        <mxCell id="1vZgLCWaHHHwiQrd-jDc-94" value="devolução" style="shape=umlFrame;whiteSpace=wrap;html=1;pointerEvents=0;width=90;height=15;" vertex="1" parent="1">
          <mxGeometry x="580" y="-210" width="510" height="470" as="geometry" />
        </mxCell>
        <mxCell id="1vZgLCWaHHHwiQrd-jDc-108" style="edgeStyle=orthogonalEdgeStyle;rounded=0;orthogonalLoop=1;jettySize=auto;html=1;entryX=0.5;entryY=1;entryDx=0;entryDy=0;" edge="1" parent="1" source="1vZgLCWaHHHwiQrd-jDc-100" target="1vZgLCWaHHHwiQrd-jDc-80">
          <mxGeometry relative="1" as="geometry" />
        </mxCell>
        <mxCell id="1vZgLCWaHHHwiQrd-jDc-100" value="Protocolo do vale - entrada." style="ellipse;whiteSpace=wrap;html=1;" vertex="1" parent="1">
          <mxGeometry x="767.5" y="207.5" width="85" height="52.5" as="geometry" />
        </mxCell>
        <mxCell id="1vZgLCWaHHHwiQrd-jDc-102" style="edgeStyle=orthogonalEdgeStyle;rounded=0;orthogonalLoop=1;jettySize=auto;html=1;" edge="1" parent="1" source="1vZgLCWaHHHwiQrd-jDc-103" target="1vZgLCWaHHHwiQrd-jDc-82">
          <mxGeometry relative="1" as="geometry" />
        </mxCell>
        <mxCell id="1vZgLCWaHHHwiQrd-jDc-103" value="Compra do C. crédito não pode ser cancelada." style="ellipse;whiteSpace=wrap;html=1;" vertex="1" parent="1">
          <mxGeometry x="645" y="-40" width="130" height="70" as="geometry" />
        </mxCell>
        <mxCell id="1vZgLCWaHHHwiQrd-jDc-106" style="edgeStyle=orthogonalEdgeStyle;rounded=0;orthogonalLoop=1;jettySize=auto;html=1;entryX=0.5;entryY=0;entryDx=0;entryDy=0;" edge="1" parent="1" source="1vZgLCWaHHHwiQrd-jDc-104" target="1vZgLCWaHHHwiQrd-jDc-100">
          <mxGeometry relative="1" as="geometry">
            <Array as="points">
              <mxPoint x="805" y="188" />
              <mxPoint x="733" y="188" />
            </Array>
          </mxGeometry>
        </mxCell>
        <mxCell id="1vZgLCWaHHHwiQrd-jDc-104" value="Receber em dinheiro em um ponto de venda" style="ellipse;whiteSpace=wrap;html=1;" vertex="1" parent="1">
          <mxGeometry x="880" y="72.46" width="130" height="70" as="geometry" />
        </mxCell>
        <mxCell id="1vZgLCWaHHHwiQrd-jDc-118" style="edgeStyle=orthogonalEdgeStyle;rounded=0;orthogonalLoop=1;jettySize=auto;html=1;entryX=0.5;entryY=0;entryDx=0;entryDy=0;" edge="1" parent="1" source="1vZgLCWaHHHwiQrd-jDc-109" target="1vZgLCWaHHHwiQrd-jDc-104">
          <mxGeometry relative="1" as="geometry" />
        </mxCell>
        <mxCell id="1vZgLCWaHHHwiQrd-jDc-109" value="Compra do c. crédito pode ser cancelada" style="ellipse;whiteSpace=wrap;html=1;" vertex="1" parent="1">
          <mxGeometry x="880" y="-40" width="130" height="70" as="geometry" />
        </mxCell>
        <mxCell id="1vZgLCWaHHHwiQrd-jDc-116" style="edgeStyle=orthogonalEdgeStyle;rounded=0;orthogonalLoop=1;jettySize=auto;html=1;entryX=1;entryY=0.5;entryDx=0;entryDy=0;" edge="1" parent="1" source="1vZgLCWaHHHwiQrd-jDc-110" target="1vZgLCWaHHHwiQrd-jDc-103">
          <mxGeometry relative="1" as="geometry" />
        </mxCell>
        <mxCell id="1vZgLCWaHHHwiQrd-jDc-117" style="edgeStyle=orthogonalEdgeStyle;rounded=0;orthogonalLoop=1;jettySize=auto;html=1;entryX=0;entryY=0.5;entryDx=0;entryDy=0;" edge="1" parent="1" source="1vZgLCWaHHHwiQrd-jDc-110" target="1vZgLCWaHHHwiQrd-jDc-109">
          <mxGeometry relative="1" as="geometry">
            <Array as="points">
              <mxPoint x="810" y="-5" />
            </Array>
          </mxGeometry>
        </mxCell>
        <mxCell id="1vZgLCWaHHHwiQrd-jDc-110" value="Verificar dados" style="ellipse;whiteSpace=wrap;html=1;" vertex="1" parent="1">
          <mxGeometry x="750" y="-125" width="120" height="70" as="geometry" />
        </mxCell>
        <mxCell id="1vZgLCWaHHHwiQrd-jDc-115" style="edgeStyle=orthogonalEdgeStyle;rounded=0;orthogonalLoop=1;jettySize=auto;html=1;entryX=0.5;entryY=0;entryDx=0;entryDy=0;" edge="1" parent="1" source="1vZgLCWaHHHwiQrd-jDc-111" target="1vZgLCWaHHHwiQrd-jDc-110">
          <mxGeometry relative="1" as="geometry" />
        </mxCell>
        <mxCell id="1vZgLCWaHHHwiQrd-jDc-111" value="Pegar dados do bilhete e comprador" style="ellipse;whiteSpace=wrap;html=1;" vertex="1" parent="1">
          <mxGeometry x="750" y="-210" width="120" height="60" as="geometry" />
        </mxCell>
      </root>
    </mxGraphModel>
  </diagram>
</mxfile>
